<svg width="256" height="256" xmlns="http://www.w3.org/2000/svg">

 <g>
  <title>background</title>
  <rect fill="none" id="canvas_background" height="402" width="582" y="-1" x="-1"/>
 </g>
 <g>
  <title>Layer 1</title>
  <ellipse ry="97.812499" rx="97.812499" id="svg_2" cy="127.345694" cx="127.37499" stroke-width="1.5" stroke="#000" fill="#A0D58A"/>
  <path id="svg_1" d="m227.94482,128.71826a3.97207,3.97207 0 0 0 0.05518,-0.5581a3.89142,3.89142 0 0 0 -0.05078,-0.49512a99.91294,99.91294 0 0 0 -99.94922,-99.66504c-0.04834,0 -0.09644,0.002 -0.145,0.002l-0.01467,-0.002l-0.00683,0l-0.02,0.00244a99.90412,99.90412 0 0 0 -99.75832,99.29056a2.58587,2.58587 0 0 0 -0.00464,1.03125a99.91331,99.91331 0 0 0 99.94946,99.67575c0.05127,0 0.102,-0.00195 0.15332,-0.00195l0.00635,0.001l0.00683,0l0.009,-0.001a99.90506,99.90506 0 0 0 99.76928,-99.27979l0.00004,0zm-164.99853,-65.77197a91.33252,91.33252 0 0 1 60.78027,-26.84229a91.3524,91.3524 0 0 1 -26.83935,60.7837a91.34914,91.34914 0 0 1 -60.74221,26.8374a91.64221,91.64221 0 0 1 26.80129,-60.77881zm-26.814,68.79a99.29984,99.29984 0 0 0 66.41214,-29.19229a99.301,99.301 0 0 0 29.19357,-66.45318a91.86613,91.86613 0 0 1 88.12964,88.17285a99.98189,99.98189 0 0 0 -95.60564,95.64551a91.86613,91.86613 0 0 1 -88.12964,-88.17285l-0.00007,-0.00004zm96.14108,88.15967a91.97057,91.97057 0 0 1 87.58163,-87.62106a91.90413,91.90413 0 0 1 -87.58154,87.6211l-0.00009,-0.00004z"/>
 </g>
</svg>